<?xml version="1.0" encoding="UTF-8"?>
<!-- Generator: Adobe Illustrator 18.1.1, SVG Export Plug-In . SVG Version: 6.00 Build 0)  -->
<!DOCTYPE svg PUBLIC "-//W3C//DTD SVG 1.1//EN" "http://www.w3.org/Graphics/SVG/1.1/DTD/svg11.dtd">
<svg version="1.1" id="Layer_1" xmlns="http://www.w3.org/2000/svg" xmlns:xlink="http://www.w3.org/1999/xlink" x="0px" y="0px" viewBox="0 0 342 72" enable-background="new 0 0 342 72" xml:space="preserve">
<g>
	<g>
		<path d="M73.8,27h18.3v4.2H79.2v3.3h12.3v4.1H79.2v6h-5.4V27z"/>
		<path d="M95.2,32.2h4.4v2.4h0c0.5-2,2.4-2.5,4.5-2.5c3.4,0,4.7,1.5,4.7,4.9c0,0.3,0,0.7,0,1.1h-4c0-1.6-0.4-2.3-2.2-2.3    c-1.6,0-2.7,0.6-2.7,2.1v6.8h-4.7V32.2z"/>
		<path d="M110.6,40.2c0-3.4,2.3-3.6,6.8-3.6c2.5,0,3.9,0.1,4.8,1v-1.1c0-1.2-0.4-1.6-2.2-1.6h-2.7c-1.4,0-1.7,0.1-1.8,1H111    c0-3.3,1.6-3.9,5.6-3.9h5.4c3.2,0,4.9,1.5,4.9,4.4v8.1h-4.4v-1.4c-1.3,1.3-1.8,1.6-4.1,1.6h-3.2c-2.8,0-4.7-0.6-4.7-3.5V40.2z     M118.8,41.9c3.2,0,3.5-0.5,3.5-1.3c0-0.9-0.3-1.3-2.8-1.3h-2.1c-2,0-2.4,0.4-2.4,1.5c0,0.8,0.6,1.1,2.4,1.1H118.8z"/>
		<path d="M129.9,32.2h4.7v2h0c0.8-1.7,2.4-2.2,4.9-2.2c2.9,0,6.9,0.1,6.9,5.5v7.1h-4.7v-7.1c0-1.2-1-1.8-3-1.8h-1.1    c-2,0-3.2,0.9-3.2,2.7v6.2h-4.7V32.2z"/>
		<path d="M149.6,27h4.7v9.3h0.9l4.1-4.1h6.1l-6.2,5.8l7,6.6h-5.9l-5-4.9h-0.9v4.9h-4.7V27z"/>
		<path d="M168.4,27h4.7v17.5h-4.7V27z"/>
		<path d="M181.5,44.6h-4.7V32.2h4.7V44.6z M181.5,30.7h-4.7V27h4.7V30.7z"/>
		<path d="M184.9,32.2h4.7v2h0c0.8-1.7,2.4-2.2,4.9-2.2c2.9,0,6.9,0.1,6.9,5.5v7.1h-4.7v-7.1c0-1.2-1-1.8-3-1.8h-1.1    c-2,0-3.2,0.9-3.2,2.7v6.2h-4.7V32.2z"/>
		<path d="M216.9,27h19.2v4.1h-13.8v2.8h13.1v3.6h-13.1v2.8h14.1v4.2h-19.5V27z"/>
		<path d="M239.7,27h4.7v17.5h-4.7V27z"/>
		<path d="M247.2,37.7c0-4.7,2.3-5.7,5.7-5.7h3.2c4.9,0,7,1,7,5.3v2.1h-11.3v0.8c0,1.3,0.9,1.7,2.9,1.7h1.4c2.5,0,2.6-0.7,2.6-1.4    h4.4V41c0,3.1-2.8,3.8-6.1,3.8h-3.5c-3.1,0-6.3-0.6-6.3-5.9V37.7z M258.7,36.7c0-1.5-0.7-1.7-3.4-1.7c-3,0-3.4,0.3-3.4,1.7H258.7z    "/>
		<path d="M265.2,37.7c0-4.7,2.3-5.7,5.7-5.7h5.2c3.4,0,5.5,1.3,5.5,4.1v1.1h-4.5c0-1.3-0.7-1.7-2.7-1.7h-1.8    c-1.9,0-2.9,0.5-2.9,1.9v1.6c0,1.6,1,2.1,2.5,2.1h2.4c1.3,0,2.5-0.3,2.5-1.4v-0.3h4.5v1.1c0,3.3-2.8,4.3-5.4,4.3h-4.7    c-3.1,0-6.3-0.6-6.3-5.9V37.7z"/>
		<path d="M285.5,35.6h-2.3v-3.3h2.3v-2.9h4.7v2.9h7.2v3.3h-7.2v4.7c0,0.9,0.7,1.1,1.8,1.1c1.5,0,1.9-0.3,1.9-1.5v-0.8h4.1v1.5    c0,2.4-1.6,4.1-5.3,4.1h-1.8c-2.9,0-5.3-0.9-5.3-4.3V35.6z"/>
		<path d="M300.5,32.2h4.4v2.4h0c0.5-2,2.4-2.5,4.5-2.5c3.4,0,4.7,1.5,4.7,4.9c0,0.3,0,0.7,0,1.1h-4c0-1.6-0.4-2.3-2.2-2.3    c-1.6,0-2.7,0.6-2.7,2.1v6.8h-4.7V32.2z"/>
		<path d="M321.6,44.6H317V32.2h4.7V44.6z M321.6,30.7H317V27h4.7V30.7z"/>
		<path d="M324.5,37.7c0-4.7,2.3-5.7,5.7-5.7h5.2c3.4,0,5.5,1.3,5.5,4.1v1.1h-4.5c0-1.3-0.7-1.7-2.7-1.7H332c-1.9,0-2.9,0.5-2.9,1.9    v1.6c0,1.6,1,2.1,2.5,2.1h2.4c1.3,0,2.5-0.3,2.5-1.4v-0.3h4.5v1.1c0,3.3-2.8,4.3-5.4,4.3h-4.7c-3.1,0-6.3-0.6-6.3-5.9V37.7z"/>
	</g>
	<path fill="#005DAA" d="M63,32.1c0.9,1.1,1,1.9,1,3H49.8c-0.5-5.5-3.1-10.5-8-13.8c-4-2.9-9.7-3.2-14.6-2   C21,21.5,15.5,27.6,15,34.2l-0.1,1H1c0.1-1.5,0-2.1,1-3.1c0,0,21.4-21.7,30.5-30.9L63,32.1z"/>
	<polygon fill="#005DAA" points="23.2,26.2 23.2,50.9 27.6,48 27.6,37.4 31.5,34.4 31.5,28.8 27.6,31.8 27.6,29.2 32.3,25.2    32.3,42.1 41.7,51 41.7,44.9 37.5,41.2 37.5,38.3 41.7,42 41.7,36.8 37.5,33.2 37.5,30.2 41.7,33.8 41.7,27.5 33.4,19.3 31.6,19.3     "/>
	<path fill="#005DAA" d="M63,40.1c1-1.1,1-1.9,1-3l-14.2,0c-0.5,5.5-3.1,10.5-8,13.8c-4,2.9-9.7,3.2-14.6,2   C21,50.8,15.5,44.7,15,38.1L15,37H1c0,1.9,0,2.3,1,3.3c9.9,9.9,21.3,21.4,30.5,30.7L63,40.1z"/>
</g>
</svg>